<?xml version="1.0" encoding="utf-8"?>
<svg viewBox="870.4000244140625 351.8000183105469 281.89990234375 281.8999938964844" width="281.89990234375" height="281.8999938964844" xmlns="http://www.w3.org/2000/svg"><g transform="matrix(1, 0, 0, 1, 0, 0)">
			<g>
				<path d="M 1144.300018 492.700012 A 132.899994 132.899994 0 0 1 1011.400024 625.600006 A 132.899994 132.899994 0 0 1 878.500031 492.700012 A 132.899994 132.899994 0 0 1 1011.400024 359.800018 A 132.899994 132.899994 0 0 1 1144.300018 492.700012 Z" class="st1" style="fill: rgb(65, 64, 66);"/>
			</g>
			<g>
				<path d="M 1121.500023 492.700012 A 110.099998 110.099998 0 0 1 1011.400024 602.800011 A 110.099998 110.099998 0 0 1 901.300026 492.700012 A 110.099998 110.099998 0 0 1 1011.400024 382.600014 A 110.099998 110.099998 0 0 1 1121.500023 492.700012 Z" class="st4" style="fill: none; stroke: rgb(255, 255, 255); stroke-width: 2; stroke-miterlimit: 10;"/>
			</g>
			<g>
				<path d="M 1113.000023 492.700012 A 101.599998 101.599998 0 0 1 1011.400024 594.300011 A 101.599998 101.599998 0 0 1 909.800026 492.700012 A 101.599998 101.599998 0 0 1 1011.400024 391.100014 A 101.599998 101.599998 0 0 1 1113.000023 492.700012 Z" class="st4" style="fill: none; stroke: rgb(255, 255, 255); stroke-width: 2; stroke-miterlimit: 10;"/>
			</g>
			<g>
				<path d="M 1089.600021 492.700012 A 78.199997 78.199997 0 0 1 1011.400024 570.900009 A 78.199997 78.199997 0 0 1 933.200027 492.700012 A 78.199997 78.199997 0 0 1 1011.400024 414.500015 A 78.199997 78.199997 0 0 1 1089.600021 492.700012 Z" class="st4" style="fill: none; stroke: rgb(255, 255, 255); stroke-width: 2; stroke-miterlimit: 10;"/>
			</g>
			<g>
				<path d="M 1081.900024 492.700012 A 70.5 70.5 0 0 1 1011.400024 563.200012 A 70.5 70.5 0 0 1 940.900024 492.700012 A 70.5 70.5 0 0 1 1011.400024 422.200012 A 70.5 70.5 0 0 1 1081.900024 492.700012 Z" class="st2" style="fill: rgb(255, 255, 255);"/>
			</g>
			<g>
				<path d="M 1066.700024 492.700012 A 55.299999 55.299999 0 0 1 1011.400024 548.000011 A 55.299999 55.299999 0 0 1 956.100025 492.700012 A 55.299999 55.299999 0 0 1 1011.400024 437.400013 A 55.299999 55.299999 0 0 1 1066.700024 492.700012 Z" class="st1" style="fill: rgb(65, 64, 66);"/>
			</g>
			<g>
				<path d="M 1059.200024 492.700012 A 47.799999 47.799999 0 0 1 1011.400024 540.500011 A 47.799999 47.799999 0 0 1 963.600025 492.700012 A 47.799999 47.799999 0 0 1 1011.400024 444.900013 A 47.799999 47.799999 0 0 1 1059.200024 492.700012 Z" class="st2" style="fill: rgb(255, 255, 255);"/>
			</g>
			<path d="M 1016.100024 403.5 A 4.7 4.7 0 0 1 1011.400024 408.2 A 4.7 4.7 0 0 1 1006.700025 403.5 A 4.7 4.7 0 0 1 1011.400024 398.8 A 4.7 4.7 0 0 1 1016.100024 403.5 Z" class="st2" style="fill: rgb(255, 255, 255);"/>
			<path d="M 991.999988 434.399994 A 4.7 4.7 0 0 1 987.299988 439.099994 A 4.7 4.7 0 0 1 982.599988 434.399994 A 4.7 4.7 0 0 1 987.299988 429.699994 A 4.7 4.7 0 0 1 991.999988 434.399994 Z" class="st1" style="fill: rgb(65, 64, 66);"/>
			<path d="M 1040.299975 434.399994 A 4.7 4.7 0 0 1 1035.599976 439.099994 A 4.7 4.7 0 0 1 1030.899976 434.399994 A 4.7 4.7 0 0 1 1035.599976 429.699994 A 4.7 4.7 0 0 1 1040.299975 434.399994 Z" class="st1" style="fill: rgb(65, 64, 66);"/>
			<path d="M 1074.399951 468.600006 A 4.7 4.7 0 0 1 1069.699951 473.300006 A 4.7 4.7 0 0 1 1064.999951 468.600006 A 4.7 4.7 0 0 1 1069.699951 463.900006 A 4.7 4.7 0 0 1 1074.399951 468.600006 Z" class="st1" style="fill: rgb(65, 64, 66);"/>
			<path d="M 1074.399951 517 A 4.7 4.7 0 0 1 1069.699951 521.7 A 4.7 4.7 0 0 1 1064.999951 517 A 4.7 4.7 0 0 1 1069.699951 512.3 A 4.7 4.7 0 0 1 1074.399951 517 Z" class="st1" style="fill: rgb(65, 64, 66);"/>
			<path d="M 1040.2 551.099976 A 4.7 4.7 0 0 1 1035.5 555.799975 A 4.7 4.7 0 0 1 1030.8 551.099976 A 4.7 4.7 0 0 1 1035.5 546.399976 A 4.7 4.7 0 0 1 1040.2 551.099976 Z" class="st1" style="fill: rgb(65, 64, 66);"/>
			<path d="M 991.799975 551.099976 A 4.7 4.7 0 0 1 987.099976 555.799975 A 4.7 4.7 0 0 1 982.399976 551.099976 A 4.7 4.7 0 0 1 987.099976 546.399976 A 4.7 4.7 0 0 1 991.799975 551.099976 Z" class="st1" style="fill: rgb(65, 64, 66);"/>
			<path d="M 957.7 516.799988 A 4.7 4.7 0 0 1 953 521.499988 A 4.7 4.7 0 0 1 948.3 516.799988 A 4.7 4.7 0 0 1 953 512.099988 A 4.7 4.7 0 0 1 957.7 516.799988 Z" class="st1" style="fill: rgb(65, 64, 66);"/>
			<path d="M 957.7 468.5 A 4.7 4.7 0 0 1 953 473.2 A 4.7 4.7 0 0 1 948.3 468.5 A 4.7 4.7 0 0 1 953 463.8 A 4.7 4.7 0 0 1 957.7 468.5 Z" class="st1" style="fill: rgb(65, 64, 66);"/>
			<path d="M 1079.100024 429.700012 A 4.7 4.7 0 0 1 1074.400024 434.400012 A 4.7 4.7 0 0 1 1069.700025 429.700012 A 4.7 4.7 0 0 1 1074.400024 425.000012 A 4.7 4.7 0 0 1 1079.100024 429.700012 Z" class="st2" style="fill: rgb(255, 255, 255);"/>
			<path d="M 1105.299975 492.700012 A 4.7 4.7 0 0 1 1100.599976 497.400012 A 4.7 4.7 0 0 1 1095.899976 492.700012 A 4.7 4.7 0 0 1 1100.599976 488.000012 A 4.7 4.7 0 0 1 1105.299975 492.700012 Z" class="st2" style="fill: rgb(255, 255, 255);"/>
			<path d="M 1079.100024 555.799988 A 4.7 4.7 0 0 1 1074.400024 560.499988 A 4.7 4.7 0 0 1 1069.700025 555.799988 A 4.7 4.7 0 0 1 1074.400024 551.099988 A 4.7 4.7 0 0 1 1079.100024 555.799988 Z" class="st2" style="fill: rgb(255, 255, 255);"/>
			<path d="M 1016.100024 581.900024 A 4.7 4.7 0 0 1 1011.400024 586.600024 A 4.7 4.7 0 0 1 1006.700025 581.900024 A 4.7 4.7 0 0 1 1011.400024 577.200025 A 4.7 4.7 0 0 1 1016.100024 581.900024 Z" class="st2" style="fill: rgb(255, 255, 255);"/>
			<path d="M 952.999988 555.799988 A 4.7 4.7 0 0 1 948.299988 560.499988 A 4.7 4.7 0 0 1 943.599988 555.799988 A 4.7 4.7 0 0 1 948.299988 551.099988 A 4.7 4.7 0 0 1 952.999988 555.799988 Z" class="st2" style="fill: rgb(255, 255, 255);"/>
			<path d="M 926.900012 492.700012 A 4.7 4.7 0 0 1 922.200012 497.400012 A 4.7 4.7 0 0 1 917.500012 492.700012 A 4.7 4.7 0 0 1 922.200012 488.000012 A 4.7 4.7 0 0 1 926.900012 492.700012 Z" class="st2" style="fill: rgb(255, 255, 255);"/>
			<path d="M 952.999988 429.700012 A 4.7 4.7 0 0 1 948.299988 434.400012 A 4.7 4.7 0 0 1 943.599988 429.700012 A 4.7 4.7 0 0 1 948.299988 425.000012 A 4.7 4.7 0 0 1 952.999988 429.700012 Z" class="st2" style="fill: rgb(255, 255, 255);"/>
			<g>
				<g>
					<path d="M 989.599976 351.799988 H 1008.999975 V 365.499988 H 989.599976 V 351.799988 Z" class="st1" style="fill: rgb(65, 64, 66);"/>
					<path d="M 1013.700012 351.799988 H 1033.100012 V 365.499988 H 1013.700012 V 351.799988 Z" class="st1" style="fill: rgb(65, 64, 66);"/>
				</g>
				<g>
					
						<path d="M 1088 382.5 H 1107.4 V 396.2 H 1088 V 382.5 Z" transform="matrix(0.7071 0.7071 -0.7071 0.7071 596.8297 -662.1181)" class="st1" style="fill: rgb(65, 64, 66);"/>
					
						<path d="M 1105 399.600006 H 1124.4 V 413.300006 H 1105 V 399.600006 Z" transform="matrix(0.7071 0.7071 -0.7071 0.7071 613.8723 -669.1772)" class="st1" style="fill: rgb(65, 64, 66);"/>
				</g>
				<g>
					<path d="M 1138.599976 471 H 1152.299975 V 490.4 H 1138.599976 V 471 Z" class="st1" style="fill: rgb(65, 64, 66);"/>
					<path d="M 1138.599976 495.100006 H 1152.299975 V 514.500006 H 1138.599976 V 495.100006 Z" class="st1" style="fill: rgb(65, 64, 66);"/>
				</g>
				<g>
					
						<path d="M 1105 572.200012 H 1124.4 V 585.900012 H 1105 V 572.200012 Z" transform="matrix(-0.7071 0.7071 -0.7071 -0.7071 2312.3611 200.2438)" class="st1" style="fill: rgb(65, 64, 66);"/>
					
						<path d="M 1088 589.200012 H 1107.4 V 602.900012 H 1088 V 589.200012 Z" transform="matrix(-0.7071 0.7071 -0.7071 -0.7071 2295.3145 241.3977)" class="st1" style="fill: rgb(65, 64, 66);"/>
				</g>
				<g>
					<path d="M 1013.700012 620 H 1033.100012 V 633.7 H 1013.700012 V 620 Z" class="st1" style="fill: rgb(65, 64, 66);"/>
					<path d="M 989.599976 620 H 1008.999975 V 633.7 H 989.599976 V 620 Z" class="st1" style="fill: rgb(65, 64, 66);"/>
				</g>
				<g>
					
						<path d="M 915.400024 589.200012 H 934.800024 V 602.900012 H 915.400024 V 589.200012 Z" transform="matrix(-0.7071 -0.7071 0.7071 -0.7071 1157.6869 1671.6777)" class="st1" style="fill: rgb(65, 64, 66);"/>
					
						<path d="M 898.299988 572.200012 H 917.699987 V 585.900012 H 898.299988 V 572.200012 Z" transform="matrix(-0.7071 -0.7071 0.7071 -0.7071 1140.6404 1630.5238)" class="st1" style="fill: rgb(65, 64, 66);"/>
				</g>
				<g>
					<path d="M 870.400024 495.100006 H 884.100024 V 514.500006 H 870.400024 V 495.100006 Z" class="st1" style="fill: rgb(65, 64, 66);"/>
					<path d="M 870.400024 471 H 884.100024 V 490.4 H 870.400024 V 471 Z" class="st1" style="fill: rgb(65, 64, 66);"/>
				</g>
				<g>
					
						<path d="M 898.299988 399.600006 H 917.699987 V 413.300006 H 898.299988 V 399.600006 Z" transform="matrix(0.7071 -0.7071 0.7071 0.7071 -21.4349 761.101)" class="st1" style="fill: rgb(65, 64, 66);"/>
					
						<path d="M 915.400024 382.5 H 934.800024 V 396.2 H 915.400024 V 382.5 Z" transform="matrix(0.7071 -0.7071 0.7071 0.7071 -4.3897 768.1585)" class="st1" style="fill: rgb(65, 64, 66);"/>
				</g>
			</g>
			<g>
				<g>
					
						<path d="M 1041.300049 357.200012 H 1060.700048 V 370.900012 H 1041.300049 V 357.200012 Z" transform="matrix(0.9253 0.3791 -0.3791 0.9253 216.5044 -371.3143)" class="st1" style="fill: rgb(65, 64, 66);"/>
					
						<path d="M 1063.699951 366.399994 H 1083.099951 V 380.099994 H 1063.699951 V 366.399994 Z" transform="matrix(0.9253 0.3791 -0.3791 0.9253 221.6353 -379.0896)" class="st1" style="fill: rgb(65, 64, 66);"/>
				</g>
				<g>
					
						<path d="M 1120.699951 423 H 1140.099951 V 436.7 H 1120.699951 V 423 Z" transform="matrix(0.3862 0.9224 -0.9224 0.3862 1090.2854 -778.8791)" class="st1" style="fill: rgb(65, 64, 66);"/>
					
						<path d="M 1130 445.200012 H 1149.4 V 458.900012 H 1130 V 445.200012 Z" transform="matrix(0.3862 0.9224 -0.9224 0.3862 1116.5092 -773.8188)" class="st1" style="fill: rgb(65, 64, 66);"/>
				</g>
				<g>
					
						<path d="M 1130.300049 525.599976 H 1149.700048 V 539.299975 H 1130.300049 V 525.599976 Z" transform="matrix(-0.3791 0.9253 -0.9253 -0.3791 2064.9126 -320.6314)" class="st1" style="fill: rgb(65, 64, 66);"/>
					
						<path d="M 1121.199951 547.900024 H 1140.599951 V 561.600024 H 1121.199951 V 547.900024 Z" transform="matrix(-0.3791 0.9253 -0.9253 -0.3791 2072.9509 -281.4067)" class="st1" style="fill: rgb(65, 64, 66);"/>
				</g>
				<g>
					
						<path d="M 1064.599976 604.900024 H 1083.999975 V 618.600024 H 1064.599976 V 604.900024 Z" transform="matrix(-0.9224 0.3862 -0.3862 -0.9224 2301.4653 761.1582)" class="st1" style="fill: rgb(65, 64, 66);"/>
					
						<path d="M 1042.300049 614.200012 H 1061.700048 V 627.900012 H 1042.300049 V 614.200012 Z" transform="matrix(-0.9224 0.3862 -0.3862 -0.9224 2262.3132 787.6457)" class="st1" style="fill: rgb(65, 64, 66);"/>
				</g>
				<g>
					
						<path d="M 962 614.599976 H 981.4 V 628.299975 H 962 V 614.599976 Z" transform="matrix(-0.9253 -0.3791 0.3791 -0.9253 1635.2032 1564.7792)" class="st1" style="fill: rgb(65, 64, 66);"/>
					
						<path d="M 939.700012 605.400024 H 959.100012 V 619.100024 H 939.700012 V 605.400024 Z" transform="matrix(-0.9253 -0.3791 0.3791 -0.9253 1595.7203 1538.7227)" class="st1" style="fill: rgb(65, 64, 66);"/>
				</g>
				<g>
					
						<path d="M 882.599976 548.799988 H 901.999975 V 562.499988 H 882.599976 V 548.799988 Z" transform="matrix(-0.3862 -0.9224 0.9224 -0.3862 724.429 1593.3176)" class="st1" style="fill: rgb(65, 64, 66);"/>
					
						<path d="M 873.299988 526.599976 H 892.699987 V 540.299975 H 873.299988 V 526.599976 Z" transform="matrix(-0.3862 -0.9224 0.9224 -0.3862 732.0335 1553.9042)" class="st1" style="fill: rgb(65, 64, 66);"/>
				</g>
				<g>
					
						<path d="M 873 446.200012 H 892.4 V 459.900012 H 873 V 446.200012 Z" transform="matrix(0.3791 -0.9253 0.9253 0.3791 128.8215 1098.0701)" class="st1" style="fill: rgb(65, 64, 66);"/>
					
						<path d="M 882.099976 423.899994 H 901.499975 V 437.599994 H 882.099976 V 423.899994 Z" transform="matrix(0.3791 -0.9253 0.9253 0.3791 155.1376 1092.677)" class="st1" style="fill: rgb(65, 64, 66);"/>
				</g>
				<g>
					
						<path d="M 938.700012 366.899994 H 958.100012 V 380.599994 H 938.700012 V 366.899994 Z" transform="matrix(0.9224 -0.3862 0.3862 0.9224 -70.7311 395.3075)" class="st1" style="fill: rgb(65, 64, 66);"/>
					
						<path d="M 961 357.5 H 980.4 V 371.2 H 961 V 357.5 Z" transform="matrix(0.9224 -0.3862 0.3862 0.9224 -65.4097 403.1734)" class="st1" style="fill: rgb(65, 64, 66);"/>
				</g>
			</g>
		</g></svg>